<svg width="46" height="46" viewBox="0 0 46 46" fill="none" xmlns="http://www.w3.org/2000/svg">
<g id="Path 627">
<path id="Path 627_2" fill-rule="evenodd" clip-rule="evenodd" d="M15.0312 11.1861C15.0312 10.4172 15.6544 9.79398 16.4233 9.79397L34.7999 9.79388C35.1692 9.79375 35.5233 9.9405 35.7844 10.2016C36.0455 10.4627 36.1922 10.8168 36.1922 11.1862L36.1922 29.5629C36.1922 30.3318 35.569 30.955 34.8001 30.955C34.0311 30.955 33.4078 30.3317 33.4078 29.5627L33.4076 14.5473L12.1572 35.7977C11.6135 36.3414 10.732 36.3414 10.1883 35.7977C9.64461 35.254 9.6446 34.3724 10.1883 33.8287L31.4387 12.5783L16.4234 12.5784C15.6545 12.5784 15.0312 11.9551 15.0312 11.1861Z" fill="white"/>
</g>
</svg>
