<svg width="128" height="40" viewBox="0 0 128 40" fill="none" xmlns="http://www.w3.org/2000/svg">
<mask id="mask0_7881_67" style="mask-type:luminance" maskUnits="userSpaceOnUse" x="0" y="0" width="40" height="40">
<path d="M16.142 19.7314L8.42548 24.2282V33.2164C4.75003 29.8854 2.66335 25.1794 2.66335 20.1875C2.66335 10.5224 10.425 2.6882 20.0001 2.6882C29.5754 2.6882 37.3371 10.5224 37.3371 20.1875C37.3371 25.1794 35.2504 29.8854 31.5747 33.2164V19.7316L23.8582 15.2348V5.84898L16.142 10.3455V19.7314H16.142ZM16.142 39.9997V19.7314L23.8581 15.2349V40C33.2176 38.1537 40 29.8396 40 20.1876C40 9.03849 31.0455 0 20 0C8.95478 0 0 9.03849 0 20.1876C6.24247e-05 29.8395 6.78257 38.1534 16.142 39.9997Z" fill="white"/>
</mask>
<g mask="url(#mask0_7881_67)">
<path d="M39.9999 0H0V39.9999H39.9999V0Z" fill="#C11425"/>
</g>
<path d="M49.47 24.08V23.48C49.47 23.06 49.68 22.85 50.1 22.85H52.65C53.07 22.85 53.28 23.06 53.28 23.48V23.72C53.28 24.48 53.43 25 53.73 25.28C54.03 25.56 54.58 25.7 55.38 25.7H56.79C57.57 25.7 58.11 25.55 58.41 25.25C58.73 24.95 58.89 24.39 58.89 23.57V23.21C58.89 22.63 58.65 22.19 58.17 21.89C57.71 21.57 57.13 21.38 56.43 21.32C55.73 21.26 54.97 21.15 54.15 20.99C53.35 20.81 52.6 20.59 51.9 20.33C51.2 20.05 50.61 19.52 50.13 18.74C49.67 17.94 49.44 16.92 49.44 15.68V14.63C49.44 13.07 49.88 11.86 50.76 11C51.64 10.14 52.86 9.71 54.42 9.71H57.42C59 9.71 60.23 10.14 61.11 11C61.99 11.86 62.43 13.07 62.43 14.63V15.2C62.43 15.62 62.22 15.83 61.8 15.83H59.25C58.83 15.83 58.62 15.62 58.62 15.2V15.02C58.62 14.24 58.47 13.71 58.17 13.43C57.87 13.15 57.32 13.01 56.52 13.01H55.35C54.53 13.01 53.97 13.17 53.67 13.49C53.39 13.79 53.25 14.39 53.25 15.29V15.86C53.25 16.8 54.07 17.34 55.71 17.48C57.41 17.62 58.92 17.96 60.24 18.5C60.94 18.8 61.52 19.34 61.98 20.12C62.46 20.88 62.7 21.86 62.7 23.06V24.08C62.7 25.64 62.26 26.85 61.38 27.71C60.5 28.57 59.28 29 57.72 29H54.45C52.89 29 51.67 28.57 50.79 27.71C49.91 26.85 49.47 25.64 49.47 24.08ZM69.3019 29H66.7519C66.3319 29 66.1219 28.79 66.1219 28.37V10.34C66.1219 9.92 66.3319 9.71 66.7519 9.71H69.3019C69.7219 9.71 69.9319 9.92 69.9319 10.34V18.89H69.9919C70.1519 18.41 70.4619 17.79 70.9219 17.03L75.4819 10.34C75.7419 9.92 76.1319 9.71 76.6519 9.71H79.5919C79.8119 9.71 79.9419 9.78 79.9819 9.92C80.0419 10.04 79.9919 10.2 79.8319 10.4L74.1319 18.29L80.4919 28.25C80.6319 28.49 80.6519 28.68 80.5519 28.82C80.4719 28.94 80.2919 29 80.0119 29H77.8219C77.1219 29 76.6519 28.79 76.4119 28.37L71.8219 21.02L69.9319 23.24V28.37C69.9319 28.79 69.7219 29 69.3019 29ZM89.9304 29H87.3804C86.9604 29 86.7504 28.79 86.7504 28.37V21.95L81.2604 10.37C81.1804 10.19 81.1804 10.04 81.2604 9.92C81.3604 9.78 81.5004 9.71 81.6804 9.71H84.8604C85.1804 9.71 85.4204 9.92 85.5804 10.34L88.5804 17.63H88.7904L91.7304 10.34C91.8704 9.92 92.1104 9.71 92.4504 9.71H95.6304C95.8304 9.71 95.9704 9.77 96.0504 9.89C96.1504 10.01 96.1504 10.17 96.0504 10.37L90.5604 21.95V28.37C90.5604 28.79 90.3504 29 89.9304 29ZM101.528 29H98.9784C98.5584 29 98.3484 28.79 98.3484 28.37V10.34C98.3484 9.92 98.5584 9.71 98.9784 9.71H106.118C107.678 9.71 108.898 10.14 109.778 11C110.658 11.86 111.098 13.07 111.098 14.63V16.97C111.098 19.23 110.208 20.73 108.428 21.47V21.59L111.638 28.28C111.818 28.76 111.648 29 111.128 29H108.698C108.338 29 108.078 28.96 107.918 28.88C107.758 28.8 107.628 28.63 107.528 28.37L104.528 21.89H102.518C102.278 21.89 102.158 22 102.158 22.22V28.37C102.158 28.79 101.948 29 101.528 29ZM102.488 18.83H105.428C106.068 18.83 106.538 18.7 106.838 18.44C107.138 18.16 107.288 17.72 107.288 17.12V14.78C107.288 14.16 107.138 13.71 106.838 13.43C106.538 13.15 106.068 13.01 105.428 13.01H102.488C102.268 13.01 102.158 13.12 102.158 13.34V18.5C102.158 18.72 102.268 18.83 102.488 18.83ZM125.195 29H115.385C114.965 29 114.755 28.79 114.755 28.37V10.34C114.755 9.92 114.965 9.71 115.385 9.71H125.195C125.595 9.71 125.795 9.92 125.795 10.34V12.38C125.795 12.8 125.595 13.01 125.195 13.01H118.925C118.685 13.01 118.565 13.12 118.565 13.34V17.24C118.565 17.46 118.685 17.57 118.925 17.57H124.055C124.475 17.57 124.685 17.78 124.685 18.2V20.24C124.685 20.66 124.475 20.87 124.055 20.87H118.925C118.685 20.87 118.565 20.98 118.565 21.2V25.37C118.565 25.59 118.685 25.7 118.925 25.7H125.195C125.595 25.7 125.795 25.91 125.795 26.33V28.37C125.795 28.79 125.595 29 125.195 29Z" fill="black"/>
</svg>
