<svg width="125" height="40" viewBox="0 0 125 40" fill="none" xmlns="http://www.w3.org/2000/svg">
<g id="SVG">
<g id="Clip path group">
<mask id="mask0_7816_1147" style="mask-type:luminance" maskUnits="userSpaceOnUse" x="0" y="2" width="125" height="33">
<g id="clip0_88_194715">
<path id="Vector" d="M124.463 2H0.382812V34.3307H124.463V2Z" fill="white"/>
</g>
</mask>
<g mask="url(#mask0_7816_1147)">
<g id="Group">
<path id="Vector_2" d="M31.7206 14.253C31.7192 17.4701 30.51 20.5592 28.3513 22.8607C26.1927 25.1622 23.2556 26.4938 20.1671 26.571V13.4941H8.125C8.32989 10.3113 9.7125 7.33534 11.9818 5.19265C14.2511 3.04994 17.2302 1.90753 20.2919 2.00586C23.3538 2.10419 26.2596 3.43558 28.3978 5.71983C30.5361 8.00407 31.7044 11.0631 31.7206 14.253Z" fill="#7C7B7B"/>
<path id="Vector_3" d="M20.165 13.4922V26.5692H19.9606C18.4076 26.5692 16.8699 26.2505 15.4352 25.6314C14.0006 25.0122 12.6972 24.1047 11.5995 22.9608C10.5018 21.8168 9.63135 20.4588 9.03783 18.9643C8.44437 17.4699 8.13949 15.8683 8.14063 14.2511C8.14063 14.0013 8.14063 13.7421 8.14063 13.4922H20.165Z" fill="#7C7B7B"/>
<path id="Vector_4" d="M20.1657 26.5692V34.0286H0.382812V13.4922H8.1236C8.1236 13.7421 8.1236 14.0013 8.1236 14.2511C8.12241 15.8683 8.42729 17.4699 9.02075 18.9643C9.61427 20.4588 10.4847 21.8168 11.5824 22.9608C12.6801 24.1047 13.9835 25.0122 15.4182 25.6314C16.8528 26.2505 18.3906 26.5692 19.9435 26.5692H20.1657Z" fill="#7C7B7B"/>
<path id="Vector_5" d="M45.875 10.2109H55.8226C60.9244 10.2109 64.1127 12.5219 64.1127 17.3562C64.1127 22.1905 60.9244 24.7405 55.6189 24.7405H50.2177V32.4037H45.875V10.2109ZM55.3894 20.8358C58.1889 20.8358 59.7384 19.9526 59.7384 17.5156C59.7384 14.9988 58.1569 14.1156 55.5357 14.1156H50.2495V20.8026L55.3894 20.8358Z" fill="#7C7B7B"/>
<path id="Vector_6" d="M63.8438 28.4178C63.8438 26.0803 65.3358 24.6792 68.0205 23.9221L74.8885 21.9831L75.0668 21.93C75.0668 21.93 75.0668 21.7905 75.0668 21.7308C75.0668 19.8448 73.9832 18.9948 72.0574 18.9948C70.1316 18.9948 68.5816 20.0573 67.6825 22.6737L64.1499 21.3057C65.5463 17.3878 68.4989 15.8672 72.2358 15.8672C76.9037 15.8672 79.3843 18.3241 79.3843 21.6378V27.3221C79.3843 28.5108 79.7601 29.1483 80.7232 29.1483C81.233 29.1363 81.7335 28.9998 82.1838 28.7498V32.0701C81.1901 32.4825 80.1345 32.7074 79.0653 32.7341C76.8717 32.7341 75.1816 31.4924 75.1816 29.0885V28.7564H75.0668C74.5343 29.9847 73.6658 31.0226 72.5708 31.7405C71.4752 32.4585 70.2008 32.8248 68.9073 32.7939C65.5401 32.7408 63.8438 30.5162 63.8438 28.4178ZM70.1821 29.3276C71.333 29.282 72.4441 28.8771 73.3711 28.1655C73.9098 27.7603 74.3481 27.2274 74.6495 26.6107C74.9515 25.9941 75.1077 25.3114 75.1051 24.6194C75.1051 24.5796 75.1051 24.3471 75.1051 24.3471L74.8501 24.4335L70.0168 26.1666C68.9073 26.5651 68.1483 26.8705 68.1483 27.7471C68.1353 28.5108 68.7474 29.3276 70.1821 29.3276Z" fill="#7C7B7B"/>
<path id="Vector_7" d="M83.9126 10.2109H88.2807V32.4037H83.9062L83.9126 10.2109Z" fill="#7C7B7B"/>
<path id="Vector_8" d="M90.75 10.2109H95.1311V32.4037H90.75V10.2109Z" fill="#7C7B7B"/>
<path id="Vector_9" d="M104.86 32.7431C99.7266 32.7431 96.5703 29.4229 96.5703 24.5089C96.5703 19.3757 99.8734 15.8164 104.981 15.8164C109.943 15.8164 113.239 19.0105 113.239 25.06H100.887C101.091 27.5635 102.258 29.3698 105.122 29.3698C107.252 29.3698 109.056 28.3671 109.643 26.1225L113.201 27.278C111.875 31.1229 108.623 32.7431 104.86 32.7431ZM108.744 22.3507C108.291 20.1328 106.933 19.0968 104.981 19.0968C104.052 19.025 103.131 19.3198 102.401 19.9226C101.671 20.5255 101.185 21.3922 101.04 22.3507H108.744Z" fill="#7C7B7B"/>
<path id="Vector_10" d="M121.684 29.3619C119.905 29.3619 119.318 28.7842 119.318 26.7456V19.4609H123.986V16.207H112.508V19.4609H114.988V28.5186C114.988 31.1748 116.264 32.7088 120.013 32.7088C121.406 32.7246 122.796 32.5821 124.158 32.2838V29.0963C123.342 29.2565 122.514 29.3454 121.684 29.3619Z" fill="#7C7B7B"/>
<path id="Vector_11" d="M114.938 10.2109C115.116 11.3595 115.636 12.4205 116.426 13.2431C117.216 14.0657 118.235 14.608 119.339 14.7929V10.2109H114.938Z" fill="#7C7B7B"/>
</g>
</g>
</g>
</g>
</svg>
