<svg width="151" height="37" viewBox="0 0 151 37" fill="none" xmlns="http://www.w3.org/2000/svg">
<g id="SVG">
<g id="Clip path group">
<mask id="mask0_7816_1223" style="mask-type:luminance" maskUnits="userSpaceOnUse" x="0" y="3" width="150" height="34">
<g id="clip0_88_194708">
<path id="Vector" d="M150 3H0V37H150V3Z" fill="white"/>
</g>
</mask>
<g mask="url(#mask0_7816_1223)">
<g id="Group">
<path id="Vector_2" d="M26.1443 20.5391H16.6429C16.5294 20.5391 16.4375 20.6314 16.4375 20.7455V23.4281C16.4375 23.542 16.5294 23.6345 16.6429 23.6345H25.293C25.7363 22.6766 26.0302 21.6346 26.1443 20.5391Z" fill="#7C7B7B"/>
<path id="Vector_3" d="M24.0051 25.6992H16.6429C16.5294 25.6992 16.4375 25.7915 16.4375 25.9054V28.7945C16.4375 29.0794 16.6678 29.3117 16.951 29.297C19.7947 29.1489 22.3163 27.7786 24.0051 25.6992Z" fill="#7C7B7B"/>
<path id="Vector_4" d="M26.1443 18.4782H16.6429C16.5294 18.4782 16.4375 18.3858 16.4375 18.2718V15.5892C16.4375 15.4753 16.5294 15.3828 16.6429 15.3828H25.293C25.7363 16.3407 26.0302 17.3827 26.1443 18.4782Z" fill="#7C7B7B"/>
<path id="Vector_5" d="M24.0051 13.3173C22.3163 11.2378 19.7947 9.86749 16.951 9.71942C16.6678 9.70467 16.4375 9.93705 16.4375 10.222V13.1109C16.4375 13.2249 16.5294 13.3173 16.6429 13.3173H24.0051Z" fill="#7C7B7B"/>
<path id="Vector_6" fill-rule="evenodd" clip-rule="evenodd" d="M16.4383 32.9217C23.8147 32.9217 29.7945 26.9164 29.7945 19.5085C29.7945 12.1006 23.8147 6.09535 16.4383 6.09535C9.06196 6.09535 3.08219 12.1006 3.08219 19.5085C3.08219 26.9164 9.06196 32.9217 16.4383 32.9217ZM16.4383 36.017C25.517 36.017 32.8767 28.6259 32.8767 19.5085C32.8767 10.3911 25.517 3 16.4383 3C7.35971 3 0 10.3911 0 19.5085C0 28.6259 7.35971 36.017 16.4383 36.017Z" fill="#7C7B7B"/>
<path id="Vector_7" d="M52.0692 29.4835C50.7109 29.4835 49.4535 29.2347 48.2971 28.737C47.159 28.2392 46.1586 27.5479 45.2958 26.6631C44.4515 25.7598 43.7907 24.709 43.3134 23.5108C42.8545 22.2941 42.625 20.9668 42.625 19.5289C42.625 18.0911 42.8545 16.773 43.3134 15.5747C43.7907 14.3581 44.4515 13.3073 45.2958 12.4224C46.1586 11.5191 47.159 10.8186 48.2971 10.3209C49.4535 9.82309 50.7109 9.57422 52.0692 9.57422C53.4277 9.57422 54.6759 9.82309 55.8139 10.3209C56.9703 10.8186 57.9708 11.5191 58.8151 12.4224C59.6779 13.3257 60.3388 14.3857 60.7976 15.6024C61.2749 16.8006 61.5135 18.1094 61.5135 19.5289C61.5135 20.9484 61.2749 22.2665 60.7976 23.4831C60.3388 24.6814 59.6779 25.7321 58.8151 26.6354C57.9708 27.5387 56.9703 28.2392 55.8139 28.737C54.6759 29.2347 53.4277 29.4835 52.0692 29.4835ZM52.0692 26.5801C53.0054 26.5801 53.859 26.405 54.6299 26.0547C55.4193 25.7045 56.0985 25.2159 56.6675 24.5892C57.2365 23.944 57.6771 23.1973 57.9891 22.3494C58.3195 21.4829 58.4847 20.5428 58.4847 19.5289C58.4847 18.515 58.3195 17.584 57.9891 16.7361C57.6771 15.8696 57.2365 15.1231 56.6675 14.4963C56.0985 13.8511 55.4193 13.3533 54.6299 13.0031C53.859 12.6528 53.0054 12.4777 52.0692 12.4777C51.1331 12.4777 50.2704 12.6528 49.481 13.0031C48.7101 13.3533 48.031 13.8419 47.4435 14.4686C46.8745 15.0955 46.434 15.842 46.1218 16.7084C45.8098 17.5564 45.6538 18.4966 45.6538 19.5289C45.6538 20.5428 45.8098 21.4829 46.1218 22.3494C46.434 23.2158 46.8745 23.9624 47.4435 24.5892C48.031 25.2159 48.7101 25.7045 49.481 26.0547C50.2704 26.405 51.1331 26.5801 52.0692 26.5801Z" fill="#7C7B7B"/>
<path id="Vector_8" d="M63.9062 29.208V14.6908H66.7424V17.6773L66.2467 18.0091C66.4303 17.3639 66.7883 16.774 67.3206 16.2394C67.8529 15.6863 68.4861 15.2439 69.2204 14.9121C69.9546 14.5618 70.7073 14.3867 71.4783 14.3867C72.5796 14.3867 73.4973 14.6079 74.2316 15.0503C74.9659 15.4744 75.5166 16.1287 75.8836 17.0137C76.2507 17.8985 76.4344 19.0138 76.4344 20.3595V29.208H73.5983V20.5531C73.5983 19.7235 73.4882 19.0414 73.2679 18.5069C73.0476 17.9538 72.7081 17.5574 72.2491 17.3178C71.7902 17.0597 71.2212 16.9492 70.542 16.9859C69.9913 16.9859 69.4867 17.0781 69.0277 17.2625C68.5688 17.4285 68.165 17.6681 67.8162 17.9814C67.4858 18.2948 67.2196 18.6635 67.0177 19.0875C66.8341 19.4931 66.7424 19.9355 66.7424 20.4148V29.208H65.338C65.0994 29.208 64.8609 29.208 64.6222 29.208C64.3836 29.208 64.145 29.208 63.9062 29.208Z" fill="#7C7B7B"/>
<path id="Vector_9" d="M86.0938 29.2078V9.85156H93.638C95.0148 9.85156 96.2538 10.082 97.3552 10.5429C98.4749 11.0037 99.4294 11.6674 100.219 12.5338C101.008 13.4002 101.614 14.4233 102.036 15.6031C102.458 16.7829 102.669 18.0918 102.669 19.5297C102.669 20.9676 102.458 22.2857 102.036 23.4839C101.614 24.6637 101.008 25.6868 100.219 26.5532C99.4478 27.4012 98.5026 28.0557 97.3828 28.5165C96.263 28.9774 95.0148 29.2078 93.638 29.2078H86.0938ZM89.0675 26.6361L88.9848 26.332H93.5005C94.4733 26.332 95.336 26.1753 96.0886 25.862C96.8595 25.5486 97.502 25.1061 98.016 24.5346C98.5483 23.9448 98.9521 23.2258 99.2275 22.3778C99.5028 21.5299 99.6405 20.5804 99.6405 19.5297C99.6405 18.4789 99.5028 17.5388 99.2275 16.7092C98.9521 15.8612 98.5483 15.1423 98.016 14.5523C97.4837 13.9625 96.8412 13.5108 96.0886 13.1974C95.336 12.884 94.4733 12.7274 93.5005 12.7274H88.9022L89.0675 12.4785V26.6361Z" fill="#7C7B7B"/>
<path id="Vector_10" d="M112.424 29.4849C110.937 29.4849 109.615 29.1715 108.459 28.5448C107.321 27.8996 106.421 27.0239 105.761 25.9179C105.118 24.8118 104.797 23.5398 104.797 22.1019C104.797 20.9589 104.981 19.9174 105.348 18.9773C105.714 18.0371 106.22 17.226 106.862 16.5439C107.523 15.8434 108.303 15.3088 109.202 14.9401C110.12 14.5529 111.111 14.3594 112.176 14.3594C113.113 14.3594 113.984 14.5438 114.791 14.9124C115.6 15.2627 116.297 15.7512 116.884 16.378C117.49 17.0047 117.949 17.7514 118.261 18.6178C118.592 19.4657 118.748 20.3967 118.729 21.4106L118.702 22.6273H106.89L106.256 20.3598H116.251L115.838 20.83V20.1662C115.783 19.5579 115.581 19.0141 115.232 18.5348C114.884 18.0556 114.443 17.6776 113.911 17.4011C113.379 17.1246 112.8 16.9863 112.176 16.9863C111.185 16.9863 110.35 17.1799 109.671 17.567C108.992 17.9357 108.477 18.4887 108.129 19.2261C107.779 19.945 107.606 20.8391 107.606 21.9084C107.606 22.9222 107.816 23.8071 108.239 24.5629C108.661 25.3003 109.258 25.8717 110.028 26.2773C110.799 26.6829 111.69 26.8857 112.7 26.8857C113.415 26.8857 114.076 26.7658 114.681 26.5262C115.306 26.2865 115.976 25.8533 116.692 25.2266L118.123 27.2451C117.682 27.6875 117.141 28.0747 116.499 28.4065C115.875 28.7384 115.204 29.0056 114.489 29.2084C113.792 29.3928 113.103 29.4849 112.424 29.4849Z" fill="#7C7B7B"/>
<path id="Vector_11" d="M127.841 29.4845C126.501 29.4845 125.299 29.1528 124.234 28.4891C123.187 27.8254 122.352 26.9222 121.728 25.7793C121.122 24.6363 120.82 23.3551 120.82 21.9356C120.82 20.5162 121.122 19.235 121.728 18.0921C122.352 16.9492 123.187 16.0458 124.234 15.3822C125.299 14.7185 126.501 14.3867 127.841 14.3867C129.126 14.3867 130.292 14.6541 131.338 15.1886C132.402 15.7048 133.211 16.4145 133.761 17.3178L132.191 19.2534C131.898 18.8295 131.522 18.4423 131.062 18.0921C130.604 17.7418 130.117 17.4652 129.603 17.2625C129.09 17.0597 128.594 16.9583 128.117 16.9583C127.235 16.9583 126.446 17.1795 125.749 17.6219C125.07 18.0459 124.528 18.6359 124.124 19.3917C123.721 20.1475 123.518 20.9955 123.518 21.9356C123.518 22.8758 123.729 23.7238 124.151 24.4796C124.573 25.217 125.133 25.8069 125.831 26.2493C126.528 26.6917 127.3 26.913 128.144 26.913C128.64 26.913 129.116 26.83 129.576 26.6641C130.053 26.4982 130.512 26.2493 130.952 25.9175C131.393 25.5857 131.806 25.1801 132.191 24.7008L133.761 26.6365C133.174 27.466 132.329 28.148 131.228 28.6827C130.145 29.2173 129.016 29.4845 127.841 29.4845Z" fill="#7C7B7B"/>
<path id="Vector_12" d="M138.408 24.6713L138.271 21.5743L145.182 14.689H149.009L138.408 24.6713ZM135.82 29.2061V9.80859H138.657V29.2061H135.82ZM145.567 29.2061L140.116 22.8186L142.125 20.9659L149.202 29.2061H145.567Z" fill="#7C7B7B"/>
</g>
</g>
</g>
</g>
</svg>
