<svg width="111" height="37" viewBox="0 0 111 37" fill="none" xmlns="http://www.w3.org/2000/svg">
<g id="SVG">
<g id="Clip path group">
<mask id="mask0_7816_1258" style="mask-type:luminance" maskUnits="userSpaceOnUse" x="0" y="6" width="111" height="31">
<g id="clip0_88_194710">
<path id="Vector" d="M110.459 6.6875H0.203125V36.3085H110.459V6.6875Z" fill="white"/>
</g>
</mask>
<g mask="url(#mask0_7816_1258)">
<g id="Group">
<path id="Vector_2" opacity="0.5" fill-rule="evenodd" clip-rule="evenodd" d="M80.5903 12.5942C80.146 13.0385 79.747 13.5264 79.3998 14.0505C78.5397 12.7537 77.3721 11.6899 76.001 10.954C74.6299 10.2181 73.0981 9.83292 71.542 9.83285H51.951V12.2297C50.2237 10.6856 47.9881 9.832 45.6713 9.83203H35.5072C33.9513 9.832 32.4196 10.217 31.0487 10.9528C29.6777 11.6886 28.5102 12.7523 27.6503 14.0489C26.7905 12.752 25.623 11.6882 24.2521 10.9524C22.8811 10.2166 21.3492 9.83171 19.7933 9.83203H0.203125V36.3099H19.7958C21.3519 36.31 22.8838 35.9249 24.2548 35.1887C25.6258 34.4526 26.7932 33.3885 27.6527 32.0914C28.5123 33.3885 29.6797 34.4526 31.0507 35.1887C32.4217 35.9249 33.9536 36.31 35.5097 36.3099H45.673C47.99 36.3099 50.2247 35.4566 51.9518 33.9131V36.3099H68.0335V31.2307H71.5444C72.8687 31.2309 74.1782 30.9521 75.3875 30.4124C76.5968 29.8727 77.6788 29.0842 78.563 28.0983H84.2996V36.3099H100.381V28.0983H106.847V9.83203H87.2559C86.0179 9.83212 84.792 10.0761 83.6483 10.55C82.5047 11.024 81.4655 11.7186 80.5903 12.5942Z" fill="#7C7B7B"/>
<path id="Vector_3" d="M22.9421 8.25781H4.92188V31.5925H22.9421C25.026 31.5924 27.0245 30.7649 28.4985 29.292C29.9715 27.818 30.799 25.8194 30.7991 23.7356V16.1164C30.7992 15.0845 30.5961 14.0628 30.2013 13.1094C29.8064 12.1561 29.2277 11.2898 28.4981 10.5602C27.7685 9.8305 26.9023 9.25168 25.949 8.85678C24.9957 8.46188 23.974 8.25781 22.9421 8.25781Z" fill="#FAFAFA"/>
<path id="Vector_4" fill-rule="evenodd" clip-rule="evenodd" d="M3.34375 6.6875H22.9364C25.4368 6.6875 27.8347 7.68078 29.6028 9.44881C31.3708 11.2169 32.3641 13.6149 32.3641 16.1153V23.7361C32.3641 26.2365 31.3708 28.6343 29.6028 30.4025C27.8347 32.1705 25.4368 33.1637 22.9364 33.1637H3.34458L3.34375 6.6875ZM6.48687 9.83062V30.0215H22.9364C23.7619 30.0215 24.5793 29.8589 25.3419 29.543C26.1045 29.227 26.7975 28.764 27.3811 28.1802C27.9648 27.5965 28.4278 26.9035 28.7436 26.1408C29.0594 25.3781 29.2219 24.5607 29.2218 23.7352V16.1161C29.2212 14.8732 28.8524 13.6583 28.1619 12.6248C27.4715 11.5914 26.4903 10.7858 25.3423 10.3095C24.5795 9.99366 23.762 9.83122 22.9364 9.83144L6.48687 9.83062Z" fill="#7C7B7B"/>
<path id="Vector_5" fill-rule="evenodd" clip-rule="evenodd" d="M19.4297 25.8048V15.4375H22.5729V25.8048H19.4297Z" fill="#7C7B7B"/>
<path id="Vector_6" d="M74.6938 8.25781H56.6719V31.5925H69.6113V26.5134H74.6938C76.7769 26.5127 78.7746 25.6849 80.2476 24.2119C81.7206 22.7389 82.5484 20.7412 82.5491 18.658V16.1156C82.5492 15.0839 82.3461 14.0623 81.9514 13.1091C81.5567 12.1559 80.9781 11.2898 80.2487 10.5602C79.5192 9.83064 78.6532 9.25187 77.7001 8.85696C76.747 8.46205 75.7255 8.25792 74.6938 8.25781Z" fill="#FAFAFA"/>
<path id="Vector_7" fill-rule="evenodd" clip-rule="evenodd" d="M55.1016 6.6875H74.6942C77.1946 6.6875 79.5925 7.68078 81.3606 9.44881C83.1286 11.2169 84.1219 13.6149 84.1219 16.1153V18.6576C84.1215 21.1579 83.128 23.5557 81.3601 25.3236C79.5922 27.0916 77.1944 28.0849 74.6942 28.0854H71.1825V33.1637H55.1016V6.6875ZM58.2447 9.83062V30.0215H68.0393V24.9431H74.6942C76.3609 24.9426 77.9592 24.2806 79.1382 23.1025C80.3163 21.9236 80.9783 20.3252 80.9788 18.6585V16.1161C80.9785 14.4495 80.3168 12.8512 79.139 11.672C77.9598 10.4938 76.3612 9.83171 74.6942 9.83144L58.2439 9.8298L58.2447 9.83062Z" fill="#7C7B7B"/>
<path id="Vector_8" fill-rule="evenodd" clip-rule="evenodd" d="M71.1875 21.7846V15.4375H74.3306V21.7846H71.1875Z" fill="#7C7B7B"/>
<path id="Vector_9" d="M48.8172 8.25781H38.6531C37.0991 8.25712 35.5798 8.71758 34.2876 9.58088C32.9955 10.4442 31.9885 11.6715 31.3943 13.1074C30.9996 14.0606 30.7966 15.0822 30.7969 16.1139V23.7347C30.7972 25.8183 31.6249 27.8165 33.0981 29.2899C34.5714 30.7633 36.5695 31.5913 38.6531 31.5917H48.8172C50.901 31.5915 52.8995 30.7641 54.3736 29.2911C55.8469 27.8173 56.6747 25.8187 56.675 23.7347V16.1156C56.675 14.0316 55.8471 12.0329 54.3735 10.5593C52.8999 9.08568 50.9012 8.25781 48.8172 8.25781Z" fill="#FAFAFA"/>
<path id="Vector_10" fill-rule="evenodd" clip-rule="evenodd" d="M31.9854 9.44884C33.7535 7.6808 36.1514 6.68752 38.6518 6.6875H48.8184C50.0564 6.6875 51.2824 6.93136 52.4262 7.40514C53.57 7.87893 54.6093 8.57337 55.4848 9.44881C56.3602 10.3243 57.0547 11.3636 57.5284 12.5074C58.0022 13.6512 58.2461 14.8772 58.2461 16.1153V23.7361C58.2461 26.2365 57.2528 28.6343 55.4848 30.4025C53.7167 32.1705 51.3188 33.1637 48.8184 33.1637H38.6543C36.1539 33.1637 33.7559 32.1705 31.9879 30.4025C30.2198 28.6343 29.2266 26.2365 29.2266 23.7361V16.1168C29.226 14.8786 29.4694 13.6525 29.9428 12.5085C30.4161 11.3644 31.1102 10.3247 31.9854 9.44884ZM38.6518 9.8298C36.9848 9.83007 35.3861 10.4921 34.207 11.6705C33.0287 12.8496 32.3667 14.4483 32.3664 16.1153V23.7361C32.3666 25.4031 33.029 27.0019 34.2079 28.1806C35.3868 29.3593 36.9856 30.0215 38.6526 30.0215H48.8184C50.0615 30.0212 51.2767 29.6523 52.3104 28.9618C53.344 28.271 54.1497 27.2896 54.6257 26.1411C54.9414 25.3785 55.1039 24.5614 55.1038 23.7361V16.1168C55.1034 14.8738 54.7346 13.6589 54.0442 12.6253C53.3537 11.5917 52.3724 10.7858 51.2243 10.3095C50.4615 9.99366 49.644 9.83122 48.8184 9.83144L38.6518 9.8298Z" fill="#7C7B7B"/>
<path id="Vector_11" fill-rule="evenodd" clip-rule="evenodd" d="M42.1587 15.4375V25.8048H39.0156V15.4375H42.1587Z" fill="#7C7B7B"/>
<path id="Vector_12" d="M108.427 8.25781H90.4039C89.3722 8.25764 88.3506 8.4608 87.3975 8.85569C86.4444 9.25058 85.5784 9.82944 84.8491 10.5592C84.1193 11.2884 83.5403 12.1544 83.1453 13.1075C82.7503 14.0606 82.547 15.0822 82.5469 16.1139V23.3801H89.0125V31.5917H101.952V23.3801H108.417L108.427 8.25781Z" fill="#FAFAFA"/>
<path id="Vector_13" fill-rule="evenodd" clip-rule="evenodd" d="M83.7383 9.44884C85.5066 7.68075 87.9049 6.68748 90.4055 6.6875H109.997V24.9522H103.532V33.1637H87.45V24.9522H80.9844V16.1161C80.9824 13.6165 81.9729 11.2184 83.7383 9.44884ZM90.4055 9.8298C89.58 9.8298 88.7626 9.9924 88 10.3084C87.2373 10.6243 86.5444 11.0873 85.9608 11.6711C85.3771 12.2548 84.9141 12.9478 84.5983 13.7105C84.2825 14.4732 84.12 15.2906 84.1201 16.1161V21.8099H90.5857V30.0215H100.383V21.8099H106.848V9.8298H90.4055Z" fill="#7C7B7B"/>
</g>
</g>
</g>
</g>
</svg>
