<svg width="81" height="40" viewBox="0 0 81 40" fill="none" xmlns="http://www.w3.org/2000/svg">
<g id="SVG" clip-path="url(#clip0_7816_1174)">
<g id="Clip path group">
<mask id="mask0_7816_1174" style="mask-type:luminance" maskUnits="userSpaceOnUse" x="0" y="0" width="81" height="40">
<g id="clip0_88_194718">
<path id="Vector" d="M80.6172 0H0.617188V40H80.6172V0Z" fill="white"/>
</g>
</mask>
<g mask="url(#mask0_7816_1174)">
<g id="Group">
<path id="Vector_2" d="M39.1319 29.2842L39.1123 29.3257C37.9755 31.5206 36.1722 32.5876 33.5965 32.5876C30.2604 32.5876 27.8385 30.2213 27.8385 26.9659C27.8385 23.8109 30.1873 21.5767 33.8201 21.2701L38.9312 20.8349L38.9988 20.8294V19.5617C38.9988 17.7082 37.9711 16.7275 36.026 16.7275C34.0863 16.7275 32.8699 17.7279 32.8339 19.3414H28.457C28.6305 15.6496 31.5913 13.3597 36.206 13.3597C40.7181 13.3597 43.3059 15.6453 43.3059 19.6337V28.7824H46.4227V32.1523H39.4341L39.3981 29.3595V29.2842H39.1319ZM38.9988 24.9346V24.1262L34.8489 24.4851C34.7529 24.4971 32.5142 24.7568 31.9895 25.7397C31.7528 26.1816 31.7102 26.739 31.8728 27.2703C32.0048 27.7067 32.3364 28.322 33.1546 28.754C33.543 28.9962 34.0568 29.1446 34.6798 29.1969L34.7463 29.2057C34.779 29.2111 34.814 29.2155 34.85 29.2187L34.898 29.2133C34.995 29.2166 35.0911 29.2187 35.1925 29.2187C37.4344 29.2187 38.9988 27.4569 38.9988 24.9346ZM11.5834 7.53519C11.6499 7.54283 11.7154 7.55265 11.77 7.56356C13.6649 7.81338 15.4039 8.74396 16.6607 10.1796C19.3978 13.3085 19.244 18.0137 16.3083 20.9581C14.8333 22.4353 12.8293 23.2666 10.739 23.2666C10.6637 23.2666 10.5917 23.2622 10.5186 23.2567C10.4772 23.2546 10.4357 23.2513 10.3943 23.2502H5.2046V32.1556H0.617188V7.48828H10.7576L10.7761 7.49046C11.0379 7.49046 11.3008 7.50356 11.5638 7.53083L11.5834 7.53519ZM12.946 11.5357H5.2046V19.2901H12.946V11.5324V11.5357Z" fill="#7C7B7B"/>
<path id="Vector_3" d="M20.7891 32.1817H25.1987V7.41406H20.7891V32.1817ZM48.6191 11.8738H52.9981V7.48824H48.6191V11.8738ZM71.9565 32.1511V20.1071C71.9565 15.6921 69.8903 13.3597 65.9793 13.3597C63.5312 13.3597 61.7628 14.3688 60.5726 16.4427L60.4307 16.6881V13.7939H56.0539V32.1511H60.4329V21.521C60.4329 18.7205 62.0279 16.9096 64.4945 16.9096C66.5684 16.9096 67.5775 18.0605 67.5775 20.4322V32.1522L71.9565 32.1511ZM74.9392 32.1511H80.6165V26.4662H74.9392V32.1511ZM52.9872 32.1817H48.5776V13.8408H52.9872V32.1817Z" fill="#7C7B7B"/>
</g>
</g>
</g>
</g>
<defs>
<clipPath id="clip0_7816_1174">
<rect width="81" height="40" fill="white"/>
</clipPath>
</defs>
</svg>
