<svg width="139" height="40" viewBox="0 0 139 40" fill="none" xmlns="http://www.w3.org/2000/svg">
<g id="SVG">
<g id="Clip path group">
<mask id="mask0_7816_1140" style="mask-type:luminance" maskUnits="userSpaceOnUse" x="0" y="4" width="139" height="35">
<g id="clip0_88_194707">
<path id="Vector" d="M138.469 4H0.539062V38.1877H138.469V4Z" fill="white"/>
</g>
</mask>
<g mask="url(#mask0_7816_1140)">
<g id="Group">
<path id="Vector_2" d="M98.8619 15.4503C96.8344 15.4503 95.3872 16.1429 94.6769 17.4544L94.2952 18.1647V15.7922H90.9958V30.2129H94.4663V21.6335C94.4663 19.5838 95.5802 18.4078 97.521 18.4078C99.3718 18.4078 100.433 19.5528 100.433 21.5481V30.2129H103.905V20.9292C103.905 17.4957 102.02 15.4503 98.8619 15.4503ZM82.0319 15.4503C77.9367 15.4503 75.4006 18.0055 75.4006 22.1184V24.1431C75.4006 28.0983 77.9662 30.5548 82.0967 30.5548C84.8597 30.5548 86.7961 29.5424 88.0148 27.4602L85.8632 26.2224C84.9629 27.4234 83.5246 28.1675 82.0982 28.1675C80.0071 28.1675 78.759 26.8766 78.759 24.7134V24.1402H88.445V21.7485C88.445 17.9171 85.9296 15.4503 82.0348 15.4503H82.0319ZM85.2872 21.8089H78.7472V21.4626C78.7472 19.0886 79.9128 17.7786 82.0289 17.7786C84.0669 17.7786 85.2841 19.0695 85.2841 21.2327L85.2872 21.8089ZM138.369 13.4182V10.6596H126.365V13.4182H130.574V27.4484H126.365V30.207H138.369V27.4484H134.159V13.4182H138.369ZM47.3505 10.2617C41.9895 10.2617 38.6562 13.6024 38.6562 18.9825V21.8914C38.6562 27.2701 41.9881 30.6122 47.3505 30.6122C52.713 30.6122 56.0448 27.2701 56.0448 21.8914V18.9825C56.0434 13.5965 52.7071 10.2617 47.3505 10.2617ZM52.458 22.0904C52.458 25.6624 50.5969 27.7107 47.3505 27.7107C44.1042 27.7107 42.2445 25.6624 42.2445 22.0904V18.7821C42.2445 15.2101 44.1071 13.1618 47.352 13.1618C50.5969 13.1618 52.4595 15.2101 52.4595 18.7821L52.458 22.0904ZM66.9451 15.4503C65.1237 15.4503 63.5469 16.2048 62.7247 17.4677L62.3518 18.0424V15.7922H59.051V35.1745H62.5229V28.1543L62.8941 28.7054C63.6751 29.8636 65.2004 30.5548 66.9747 30.5548C69.9675 30.5548 72.9869 28.5993 72.9869 24.2286V21.7765C72.9869 18.6274 71.1257 15.4503 66.9451 15.4503ZM69.5151 24.0591C69.5151 26.383 68.1594 27.8271 65.9785 27.8271C63.9449 27.8271 62.5257 26.3005 62.5257 24.1166V21.9474C62.5257 19.737 63.9566 18.1809 66.0079 18.1809C68.1726 18.1809 69.518 19.6235 69.518 21.9474L69.5151 24.0591ZM113.498 10.6611L106.494 30.2129H110.02L111.361 26.022H119.413L119.426 26.0632L120.752 30.2129H124.277L117.262 10.6596L113.498 10.6611ZM112.222 23.2648L115.381 13.3799L118.508 23.2648H112.222Z" fill="#7C7B7B"/>
<path id="Vector_3" d="M31.8672 18.0182C32.2472 16.8775 32.379 15.6689 32.254 14.4731C32.129 13.2774 31.7499 12.1222 31.1422 11.0848C30.24 9.51706 28.8637 8.27591 27.2113 7.54002C25.5589 6.80413 23.7157 6.61145 21.9468 6.98971C21.1491 6.08998 20.1683 5.37106 19.0701 4.88108C17.972 4.3911 16.7818 4.14136 15.5794 4.14859C13.7702 4.14447 12.0065 4.71513 10.5427 5.77825C9.07886 6.84136 7.99055 8.34198 7.43476 10.0636C6.25694 10.3052 5.14429 10.7956 4.17122 11.5018C3.19816 12.208 2.3871 13.1139 1.79231 14.1588C0.885401 15.724 0.498507 17.5366 0.687314 19.3357C0.876122 21.1348 1.6309 22.8276 2.84299 24.1705C2.46449 25.3101 2.33338 26.5174 2.4584 27.7117C2.58342 28.906 2.9617 30.0599 3.56801 31.0964C4.4693 32.6673 5.84625 33.9112 7.50025 34.6488C9.15425 35.3864 10.9998 35.5796 12.7707 35.2004C13.5678 36.0991 14.5474 36.8173 15.6442 37.3073C16.7409 37.7972 17.9296 38.0475 19.1308 38.0416C20.9399 38.0457 22.7036 37.475 24.1675 36.4119C25.6313 35.3488 26.7196 33.8482 27.2754 32.1265C28.453 31.8848 29.5654 31.3944 30.5382 30.6882C31.511 29.982 32.3218 29.0761 32.9164 28.0313C33.8256 26.4666 34.214 24.6534 34.0254 22.8536C33.8368 21.0537 33.081 19.3604 31.8672 18.0182ZM19.1308 35.8311C17.645 35.8324 16.2062 35.3108 15.0666 34.3575C15.1167 34.3295 15.2139 34.2809 15.2699 34.2441L22.019 30.3478C22.1884 30.2517 22.329 30.1121 22.4264 29.9434C22.5238 29.7748 22.5744 29.5833 22.5731 29.3885V19.872L25.4246 21.518C25.44 21.5253 25.4532 21.5365 25.463 21.5504C25.4729 21.5643 25.4789 21.5806 25.4806 21.5976V29.474C25.4806 31.1587 24.8118 32.7746 23.6212 33.9666C22.4306 35.1586 20.8155 35.8292 19.1308 35.8311ZM5.48665 30.0045C4.74264 28.7187 4.47403 27.2124 4.72774 25.7487C4.77784 25.7797 4.86626 25.8327 4.92815 25.8681L11.6787 29.7658C11.8468 29.8642 12.0381 29.9161 12.2328 29.9161C12.4276 29.9161 12.6188 29.8642 12.7869 29.7658L21.0229 25.0031V28.2951C21.0244 28.312 21.0216 28.3291 21.0146 28.3445C21.0076 28.36 20.9968 28.3735 20.9831 28.3835L14.1603 32.321C12.7015 33.161 10.969 33.388 9.343 32.9524C7.71697 32.5167 6.33012 31.4539 5.48665 29.9971V30.0045ZM3.71832 15.2684C4.45884 13.9807 5.62898 12.9947 7.02362 12.4833V20.5056C7.02263 20.7003 7.07342 20.8917 7.17078 21.0603C7.26814 21.2289 7.40858 21.3685 7.5777 21.4649L15.8152 26.2217L12.9534 27.8737C12.9395 27.8831 12.9234 27.8888 12.9066 27.8903C12.8899 27.8919 12.8731 27.8892 12.8576 27.8825L6.0363 23.9435C4.57879 23.1003 3.51545 21.7132 3.07974 20.0867C2.64404 18.4602 2.87158 16.7273 3.71242 15.2684H3.71832ZM27.1487 20.7208L18.9112 15.964L21.7597 14.3165C21.7737 14.3072 21.7898 14.3015 21.8065 14.3C21.8232 14.2985 21.84 14.3011 21.8555 14.3076L28.6768 18.2466C29.7216 18.8503 30.5728 19.7391 31.1308 20.809C31.6887 21.8789 31.9304 23.0856 31.8274 24.2878C31.7244 25.4901 31.2811 26.6381 30.5493 27.5976C29.8176 28.557 28.8276 29.2881 27.6954 29.7054V21.6845C27.6976 21.4894 27.6477 21.2971 27.5508 21.1277C27.4539 20.9583 27.3136 20.8178 27.1443 20.7208H27.1487ZM29.9883 16.4473C29.9382 16.4164 29.8498 16.3633 29.7879 16.3279L23.0373 12.4302C22.8692 12.3318 22.678 12.2799 22.4832 12.2799C22.2885 12.2799 22.0972 12.3318 21.9292 12.4302L13.6917 17.1856V13.895C13.6911 13.8781 13.6945 13.8612 13.7017 13.8459C13.7089 13.8305 13.7196 13.817 13.7329 13.8066L20.5543 9.86914C21.5995 9.26665 22.7946 8.97431 23.9999 9.02631C25.2052 9.07832 26.3707 9.47252 27.3601 10.1628C28.3495 10.853 29.1219 11.8108 29.5868 12.924C30.0517 14.0372 30.19 15.2599 29.9854 16.4488L29.9883 16.4473ZM12.137 22.3182L9.28414 20.6721C9.26948 20.664 9.25692 20.6526 9.24745 20.6388C9.23799 20.625 9.23188 20.6092 9.22961 20.5926V12.7161C9.2287 11.5089 9.57192 10.3265 10.2191 9.30741C10.8662 8.28832 11.7904 7.47483 12.8834 6.96228C13.9764 6.44973 15.1929 6.25938 16.3902 6.41352C17.5875 6.56767 18.7161 7.05993 19.6436 7.83261C19.5935 7.86061 19.5036 7.90924 19.4402 7.94608L12.6911 11.8423C12.522 11.9387 12.3816 12.0783 12.2842 12.2469C12.1868 12.4155 12.136 12.6069 12.137 12.8016V22.3182ZM13.6858 18.9775L17.3551 16.8584L21.0229 18.9775V23.2126L17.3536 25.3317L13.6843 23.2126L13.6858 18.9775Z" fill="#7C7B7B"/>
</g>
</g>
</g>
</g>
</svg>
