<svg width="110" height="40" viewBox="0 0 110 40" fill="none" xmlns="http://www.w3.org/2000/svg">
<g id="SVG">
<g id="Clip path group">
<mask id="mask0_7816_1129" style="mask-type:luminance" maskUnits="userSpaceOnUse" x="0" y="1" width="110" height="38">
<g id="clip0_88_194706">
<path id="Vector" d="M110 1.66797H0V38.3347H110V1.66797Z" fill="white"/>
</g>
</mask>
<g mask="url(#mask0_7816_1129)">
<g id="Group">
<path id="Vector_2" d="M42.1108 33.5659C38.0378 30.9352 32.5104 30.4739 23.5959 32.953C14.0924 35.1924 10.9243 36.6283 6.76291 33.7465C5.16425 32.3311 4.59157 30.0519 5.01918 26.7688C6.0116 21.4164 8.69432 16.2659 13.459 10.5526C16.1187 7.58059 18.5857 5.03008 21.8434 4.00596C24.3402 3.36351 24.107 5.33097 23.8049 5.61224C23.4859 5.61224 22.9506 5.66259 22.5367 5.93362C22.2007 6.19528 21.2783 7.03823 21.2293 8.17299C21.1578 9.90981 22.9506 9.54834 23.7238 8.59476C24.5571 7.52 25.7886 5.46209 24.8201 3.5441C24.4138 2.86125 23.7121 2.38973 22.8408 2.22875C19.858 2.05811 17.0799 3.4838 14.5159 5.05994C8.90886 8.96589 4.42344 14.3783 1.8855 20.3027C0.421977 23.8773 -0.901142 28.9973 1.08281 33.1643C2.61725 36.0558 5.80319 37.5919 9.60354 37.2711C12.269 36.9898 15.4923 36.1261 17.6604 35.6042C19.8288 35.0821 30.9261 31.2566 34.5723 37.9144C34.5723 37.9144 35.7848 35.5545 38.8151 35.5038C41.3064 35.2735 44.9004 36.2276 47.5174 38.155C46.6453 36.84 44.1733 34.902 42.1108 33.5659Z" fill="#7C7B7B"/>
<path id="Vector_3" d="M24.7335 11.2265C22.6579 9.86089 18.4863 12.4714 15.1447 16.9495C12.089 20.9664 10.77 25.6351 12.2057 27.7937C14.3415 30.3336 18.3065 26.6396 19.993 24.6616L20.2107 24.4301C21.3572 23.1952 22.2431 21.7089 23.1004 20.2832C23.1004 20.2832 23.8882 18.9778 23.9258 18.9176C24.4133 18.8274 25 18.6869 25.6608 18.4961C25.6515 18.5262 23.1313 22.7737 23.3885 24.882C23.4685 25.525 23.4072 27.875 25.695 28.5874C28.744 29.0996 31.1786 26.7294 33.3263 24.6206C33.3263 24.6206 33.6926 24.2697 33.8996 24.0695C33.847 24.2793 33.7787 24.5603 33.7787 24.5603C32.8861 27.6734 34.0893 28.3261 34.8424 28.5667C37.117 29.2302 39.8345 25.9158 39.8433 25.9158C39.7729 26.9598 39.5671 27.8235 40.6643 28.5163C41.6999 28.888 42.7481 28.3214 43.5449 27.7893C46.4148 25.7609 48.7265 22.5873 50.594 19.843H49.4028C49.3888 19.843 46.4638 24.0944 44.5639 25.0184C44.561 25.0184 44.2154 25.1966 44.0163 25.0556C43.7697 24.8445 43.8669 24.4061 44.0193 24.0955C44.0289 24.0759 51.3538 11.3369 51.3538 11.3369H47.8952C47.8952 11.3369 47.5172 11.9498 47.4869 11.9896C47.4635 11.97 47.4081 11.8643 47.3698 11.8137C45.2271 8.84174 40.3751 13.4132 36.7221 18.7147C35.3155 20.7533 33.5248 23.0483 31.6684 24.7049C31.6684 24.7049 28.918 27.2338 27.7425 25.417C27.3129 24.654 27.4451 23.5374 27.6877 22.8051C29.056 18.8991 31.4139 15.3543 34.0969 13.2151C34.8543 12.6235 35.6777 12.4523 36.0858 12.7032C36.4749 12.9344 36.5379 13.506 36.2916 13.8979C35.6667 13.8783 35.1664 14.0683 34.7592 14.49C33.9574 15.3336 33.6786 16.1469 33.9334 16.9103C35.1719 18.6773 37.6418 15.1834 37.5222 13.0547C37.4796 12.2913 37.0733 11.5684 36.4676 11.2169C35.5642 10.6748 34.1868 10.8153 33.2951 11.2473C32.1013 11.6989 30.2119 13.2751 29.1089 14.5003C27.7201 16.0369 25.3389 17.7436 24.5943 17.5524C24.8383 16.8992 26.8494 12.7722 24.7335 11.2265ZM41.4066 17.3312C42.0794 16.3975 44.0376 13.8976 44.5143 13.4759C46.1197 12.0598 46.7615 12.683 46.8173 13.124C45.319 15.8147 43.5508 18.8977 41.8876 21.6691C41.8914 21.6592 41.3672 22.4623 41.3672 22.4623C40.6331 23.5868 39.8935 24.5507 38.6874 25.2236C38.5158 25.2739 38.232 25.2938 38.0435 25.1533C37.8167 25.0023 37.7268 24.7514 37.7522 24.4901C37.8249 23.6266 38.7017 20.9863 41.4066 17.3312ZM22.5931 18.9477C22.5931 18.9477 22.5627 19.0384 22.5481 19.0683C22.5443 19.0683 21.0403 21.5283 21.0403 21.5283C20.1328 22.7427 18.9991 24.2694 17.5826 25.0023C17.1628 25.1425 16.582 25.2332 16.2866 24.8621C15.6599 24.1087 15.9828 23.0641 16.2454 22.2211L16.338 21.92C17.091 19.872 18.2854 18.0647 19.4477 16.3878C19.4626 16.3779 19.4947 16.3679 19.5067 16.3679C19.5093 16.3782 19.5137 16.3782 19.516 16.3981C20.2457 17.8036 21.6135 18.456 22.636 18.758C22.6421 18.758 22.6491 18.768 22.6491 18.7885C22.6497 18.8172 22.6328 18.8576 22.5931 18.9477ZM24.0178 16.0463C24.0117 16.0662 23.3482 17.5923 23.3482 17.5923C23.2522 17.6725 23.1004 17.6326 22.927 17.5923L22.6293 17.5419C21.6941 17.251 20.9889 16.6284 20.7717 15.8856C20.472 14.44 21.7037 13.3052 22.2463 12.8934C22.7671 12.5316 23.577 12.3408 24.0467 12.7125C24.3365 13.0541 24.4466 13.4958 24.4466 13.9778C24.4466 14.6302 24.2457 15.3634 24.0178 16.0463Z" fill="#7C7B7B"/>
<path id="Vector_4" d="M67.7331 20.7045C67.3989 19.9815 66.6082 19.52 65.7643 19.57C63.0247 19.8209 60.3452 22.0801 58.938 25.3231C58.1998 26.9894 57.7967 28.3656 57.5329 30.5544C58.3846 29.5709 60.1222 27.9538 62.0939 27.0702C62.0939 27.0702 62.3624 24.9719 63.7305 23.1045C64.248 22.3304 65.2845 21.0861 66.4479 21.4169C67.4643 21.7588 67.107 24.5806 65.7565 27.3108C64.7565 29.3189 63.227 31.3283 61.6788 32.7136C60.3104 33.8782 58.2859 35.2837 56.515 34.1993C55.3997 33.5366 54.8306 32.151 54.9508 30.3638C55.4841 25.2933 57.7853 20.9755 61.0796 16.0554C64.4762 11.4871 68.2203 6.79788 73.2638 4.29743C74.2921 3.77527 75.2454 3.65469 76.0685 3.97635C76.0685 3.97635 71.3338 6.58685 69.0769 11.4165C68.5028 12.642 67.7042 14.2981 68.5086 15.7642C68.9284 16.5269 69.675 16.5875 70.2757 16.5471C73.0422 15.9044 74.8297 13.3141 76.2897 10.9444C77.1365 9.14702 77.889 7.35985 77.889 5.3719C77.889 5.13101 77.8767 4.80964 77.856 4.56876C79.178 3.86601 81.8878 5.11082 81.8878 5.11082C84.0058 5.81386 88.5148 9.27843 90.0364 9.94079C90.7784 9.07736 91.9979 7.77225 92.6841 7.11926L91.6905 6.50666C90.0995 5.53258 88.4173 4.60886 86.7615 3.69537C83.002 1.63717 79.9421 2.35982 78.3843 2.92208C77.7717 3.14306 77.2124 3.3339 77.2124 3.3339C76.0562 2.0686 74.1607 2.18889 72.7643 2.53046C67.7407 3.97606 63.0772 7.50034 58.0772 13.6155C54.4012 18.4051 52.1207 22.542 50.9056 26.6285C49.9686 29.3792 49.6837 33.426 51.9704 35.8257C53.9146 37.8637 56.4923 37.4221 58.3128 36.6898C62.257 34.7413 65.8017 30.5444 67.5676 25.7145C67.9938 24.2794 68.4669 22.2511 67.7331 20.7045ZM76.8023 5.57327C76.2801 11.5778 71.626 15.1024 70.4739 15.3834C69.776 15.5236 68.5851 15.2124 69.6479 12.6927C71.2138 9.29862 73.8866 6.41739 76.7553 4.94106C76.8251 5.19189 76.823 5.352 76.8023 5.57327Z" fill="#7C7B7B"/>
<path id="Vector_5" d="M104.412 6.33632C101.909 7.7626 99.3132 8.68604 96.1713 8.36467C95.3009 9.34898 94.453 10.3628 93.6719 11.4072C98.0812 12.5317 102.756 10.0315 105.363 7.65226C108.121 5.25249 109.536 2.23047 109.536 2.23047C109.536 2.23047 107.468 4.5995 104.412 6.33632Z" fill="#7C7B7B"/>
<path id="Vector_6" d="M57.0978 11.3359H53.8135L51.9609 14.3544H55.2447L57.0978 11.3359Z" fill="#7C7B7B"/>
<path id="Vector_7" d="M96.1595 33.8465C95.806 34.0877 95.3101 33.9021 95.4954 33.3507C95.9578 31.9446 97.7946 29.0801 97.7946 29.0801L102.911 19.9803H99.4064C99.2397 20.2549 98.8833 20.8842 98.8833 20.8842C98.7213 20.6137 98.2365 20.0117 98.0369 19.8814C97.1808 19.3388 95.9248 19.5952 95.0582 20.0872C91.2905 22.2961 88.5409 26.6613 86.3725 30.0656C86.3725 30.0656 84.0906 33.8495 82.8235 34.1307C81.8343 34.2112 81.9367 32.8754 81.9791 32.5637C82.3617 30.3143 83.2499 28.1762 84.1446 26.2378C85.9642 24.9733 88.0415 23.3164 89.9286 21.4991C94.0243 17.5727 97.4779 13.1247 97.9829 12.1307C97.9829 12.1307 97.4365 12.241 96.7911 12.2609C93.6402 16.6691 87.1913 23.0749 85.2365 24.0291C86.1025 21.9402 91.6983 11.9697 96.4598 7.20029L97.2088 6.47705C98.3679 5.34259 99.5678 4.17797 100.503 3.98714C100.602 3.97689 100.729 3.98714 100.839 4.21836C100.881 5.10199 100.553 5.75469 100.176 6.49754L99.649 7.58225C99.649 7.58225 100.396 7.44176 100.886 7.28049C101.455 6.20661 102.085 5.00131 101.853 3.56596C101.775 3.1038 101.442 2.75257 101.007 2.67237C99.5865 2.40105 98.0377 3.45503 96.7926 4.3088L96.7418 4.33866C90.3384 9.36912 84.9312 16.6188 80.2041 26.519C79.8614 26.7798 78.5377 27.0912 78.313 26.9402C78.78 25.9764 79.3675 24.6806 79.6618 23.2754C79.7128 22.8736 79.7601 22.4626 79.7601 22.0608C79.7601 21.197 79.5532 20.3837 78.7811 19.8217C77.8757 19.3698 76.7572 19.5808 76.0027 19.9221C72.6235 21.3282 70.0981 24.8024 68.2753 27.6632C67.2954 29.4816 66.3176 31.428 66.047 33.6575C65.8564 35.4045 66.2444 36.529 67.2347 37.0913C68.2534 37.6132 69.5354 37.0708 70.0389 36.81C73.4624 35.0024 75.8544 31.3777 77.74 28.0641C77.815 28.0545 78.8439 28.024 79.6227 27.8236C79.6329 27.8236 79.6375 27.8236 79.6548 27.8338C79.6101 27.9842 79.2076 29.1892 79.2076 29.1892C78.0126 32.7033 77.4604 35.0934 78.5888 36.5088C80.2018 38.5073 82.8722 36.4392 85.0444 33.7072C84.5777 36.9807 86.2701 37.4934 87.5593 37.2423C89.0406 36.8408 90.6913 35.2538 91.4575 34.4407C91.2111 35.3949 91.2785 37.1018 92.6256 37.2722C93.5491 37.4437 94.2403 36.94 95.0401 36.508C97.9093 34.9415 101.344 29.7211 102.235 28.212H101.066C99.801 30.1332 98.1881 32.6512 96.1595 33.8465ZM70.4069 33.4974C70.2248 33.2257 70.1647 32.9301 70.1583 32.6093C70.1232 30.6401 72.2353 27.1149 73.7271 25.194C73.7304 25.194 73.7304 25.194 73.7304 25.194C74.3553 26.5662 75.7701 27.448 76.6244 27.8192C75.5634 30.1891 71.925 35.2643 70.4069 33.4974ZM77.2231 26.7605C77.1218 26.8307 75.3378 26.2287 74.9931 24.5715C74.7003 23.1452 75.6799 22.0306 76.6276 21.4687C77.0348 21.1473 77.6472 21.0369 78.0964 21.197C78.5135 21.4789 78.6262 21.9809 78.6262 22.5221C78.6262 22.8543 78.583 23.1955 78.5438 23.5064C78.5438 23.5064 78.5366 23.567 78.5354 23.5766C78.238 24.6909 77.7832 25.7856 77.2231 26.7605ZM91.5339 32.8651L91.1956 33.1657C90.7143 33.598 90.219 34.0593 89.6209 33.8287C89.4557 33.7681 89.3393 33.5474 89.3112 33.3762C89.2841 32.1413 89.839 30.9969 90.3766 29.882L90.5144 29.5911C92.0617 27.0002 93.86 23.9483 96.5013 21.8296C96.9461 21.5076 97.4295 21.2369 97.9391 21.4479C98.0564 21.5579 98.193 21.7488 98.193 21.9399C98.193 21.9999 98.1393 22.1606 98.1084 22.2109C97.3714 23.4063 96.6685 24.661 95.9855 25.866C94.6507 28.2462 93.2657 30.7054 91.5339 32.8651Z" fill="#7C7B7B"/>
</g>
</g>
</g>
</g>
</svg>
