<svg width="146" height="40" viewBox="0 0 146 40" fill="none" xmlns="http://www.w3.org/2000/svg">
<g id="SVG" clip-path="url(#clip0_7816_1162)">
<g id="Clip path group">
<mask id="mask0_7816_1162" style="mask-type:luminance" maskUnits="userSpaceOnUse" x="0" y="0" width="146" height="40">
<g id="clip0_88_194709">
<path id="Vector" d="M145.673 0.941406H0.539062V39.0573H145.673V0.941406Z" fill="white"/>
</g>
</mask>
<g mask="url(#mask0_7816_1162)">
<g id="Group">
<path id="Vector_2" d="M56.3614 25.2911C53.7943 25.2911 51.9403 23.2293 51.9403 20.4313C51.9403 17.6332 53.7943 15.5715 56.3614 15.5715C58.5007 15.5715 60.155 16.9852 60.64 19.1058H63.6919C63.1214 15.3653 60.2121 12.7734 56.3614 12.7734C52.0829 12.7734 48.9453 16.0133 48.9453 20.4313C48.9453 24.8493 52.0829 28.089 56.3614 28.089C60.2121 28.089 63.1214 25.4972 63.6919 21.7566H60.64C60.155 23.8478 58.5007 25.2911 56.3614 25.2911Z" fill="#7C7B7B"/>
<path id="Vector_3" d="M67.7109 27.797L68.8804 24.8516H76.4106L77.58 27.797H80.6606L74.8132 13.0703H70.5348L64.6875 27.797H67.7109ZM69.9358 22.2009L72.5029 15.7212H72.7881L75.3552 22.2009H69.9358Z" fill="#7C7B7B"/>
<path id="Vector_4" d="M89.3536 25.2934C87.0433 25.2934 85.3603 23.379 85.3603 20.7282V13.0703H82.5078V20.7282C82.5078 24.9694 85.4175 28.0914 89.3536 28.0914C93.2899 28.0914 96.1993 24.9694 96.1993 20.7282V13.0703H93.3469V20.7282C93.3469 23.379 91.664 25.2934 89.3536 25.2934Z" fill="#7C7B7B"/>
<path id="Vector_5" d="M106.33 25.4383C103.934 25.4383 102.337 24.6135 102.337 23.3766H99.4844C99.4844 26.204 102.223 28.089 106.33 28.089C110.78 28.089 113.176 26.4102 113.176 23.2882C113.176 20.2839 111.179 18.9586 106.473 18.9586C103.763 18.9586 102.622 18.5168 102.622 17.3976C102.622 16.1017 103.906 15.4241 106.33 15.4241C108.555 15.4241 110.038 16.2489 110.038 17.4859H112.89C112.89 14.6584 110.266 12.7734 106.33 12.7734C102.052 12.7734 99.7697 14.3934 99.7697 17.3976C99.7697 20.3723 101.709 21.6094 106.216 21.6094C109.068 21.6094 110.323 22.11 110.323 23.2882C110.323 24.6725 108.926 25.4383 106.33 25.4383Z" fill="#7C7B7B"/>
<path id="Vector_6" d="M118.054 27.797L119.225 24.8516H126.754L127.923 27.797H131.005L125.156 13.0703H120.879L115.031 27.797H118.054ZM120.28 22.2009L122.847 15.7212H123.132L125.699 22.2009H120.28Z" fill="#7C7B7B"/>
<path id="Vector_7" d="M133.719 27.797H145.129V25.1462H136.572V13.0703H133.719V27.797Z" fill="#7C7B7B"/>
<path id="Vector_8" opacity="0.8" fill-rule="evenodd" clip-rule="evenodd" d="M18.9954 39.0574C29.1886 39.0574 37.4517 30.5249 37.4517 19.9994C37.4517 9.47394 29.1886 0.941406 18.9954 0.941406C8.80223 0.941406 0.539062 9.47394 0.539062 19.9994C0.539062 30.5249 8.80223 39.0574 18.9954 39.0574ZM18.9954 31.9329C25.3779 31.9329 30.5521 26.5901 30.5521 19.9994C30.5521 13.4087 25.3779 8.06589 18.9954 8.06589C12.6128 8.06589 7.43861 13.4087 7.43861 19.9994C7.43861 26.5901 12.6128 31.9329 18.9954 31.9329Z" fill="#7C7B7B"/>
</g>
</g>
</g>
</g>
<defs>
<clipPath id="clip0_7816_1162">
<rect width="146" height="40" fill="white"/>
</clipPath>
</defs>
</svg>
