<svg width="149" height="37" viewBox="0 0 149 37" fill="none" xmlns="http://www.w3.org/2000/svg">
<g id="SVG" clip-path="url(#clip0_7816_1243)">
<g id="Clip path group">
<mask id="mask0_7816_1243" style="mask-type:luminance" maskUnits="userSpaceOnUse" x="0" y="0" width="151" height="40">
<g id="clip0_88_194716">
<path id="Vector" d="M150.844 0H0.84375V40H150.844V0Z" fill="white"/>
</g>
</mask>
<g mask="url(#mask0_7816_1243)">
<g id="Group">
<path id="Vector_2" d="M13.0134 19.6789C17.3485 19.6789 20.8628 16.162 20.8628 11.8239C20.8628 7.48558 17.3485 3.96875 13.0134 3.96875C8.67834 3.96875 5.16406 7.48558 5.16406 11.8239C5.16406 16.162 8.67834 19.6789 13.0134 19.6789Z" fill="#7C7B7B"/>
<path id="Vector_3" d="M27.1234 14.6704C29.3014 14.6704 31.0671 12.9035 31.0671 10.7239C31.0671 8.54426 29.3014 6.77734 27.1234 6.77734C24.9454 6.77734 23.1797 8.54426 23.1797 10.7239C23.1797 12.9035 24.9454 14.6704 27.1234 14.6704Z" fill="#7C7B7B"/>
<path id="Vector_4" d="M4.78739 26.3189C6.96539 26.3189 8.73103 24.552 8.73103 22.3723C8.73103 20.1927 6.96539 18.4258 4.78739 18.4258C2.60938 18.4258 0.84375 20.1927 0.84375 22.3723C0.84375 24.552 2.60938 26.3189 4.78739 26.3189Z" fill="#7C7B7B"/>
<path id="Vector_5" d="M26.136 33.1902C30.6596 33.1902 34.3266 29.5204 34.3266 24.9935C34.3266 20.4667 30.6596 16.7969 26.136 16.7969C21.6124 16.7969 17.9453 20.4667 17.9453 24.9935C17.9453 29.5204 21.6124 33.1902 26.136 33.1902Z" fill="#7C7B7B"/>
<path id="Vector_6" d="M12.1484 36.0343C14.8708 36.0343 17.0779 33.8256 17.0779 31.1011C17.0779 28.3766 14.8708 26.168 12.1484 26.168C9.42579 26.168 7.21875 28.3766 7.21875 31.1011C7.21875 33.8256 9.42579 36.0343 12.1484 36.0343Z" fill="#7C7B7B"/>
<path id="Vector_7" d="M54.729 19.6028C55.7803 19.8269 56.6248 20.3525 57.2624 21.1797C57.9001 21.9897 58.2189 22.9204 58.2189 23.9717C58.2189 25.4884 57.6846 26.6947 56.6161 27.5909C55.5648 28.4698 54.0913 28.9093 52.1955 28.9093H43.7422V10.7617H51.9112C53.7553 10.7617 55.1943 11.184 56.2283 12.0284C57.2796 12.8729 57.8053 14.019 57.8053 15.4666C57.8053 16.5351 57.5209 17.4227 56.9522 18.1293C56.4007 18.8359 55.6596 19.3271 54.729 19.6028ZM48.1628 18.1035H51.0581C51.7819 18.1035 52.3334 17.9483 52.7126 17.6382C53.109 17.3107 53.3071 16.8367 53.3071 16.2164C53.3071 15.5959 53.109 15.1219 52.7126 14.7945C52.3334 14.4671 51.7819 14.3034 51.0581 14.3034H48.1628V18.1035ZM51.42 25.3418C52.1611 25.3418 52.7298 25.1781 53.1261 24.8506C53.5398 24.506 53.7466 24.0148 53.7466 23.3771C53.7466 22.7395 53.5312 22.2397 53.1003 21.8778C52.6867 21.5158 52.1094 21.3349 51.3683 21.3349H48.1628V25.3418H51.42ZM73.605 21.4641C73.605 21.8778 73.5792 22.3086 73.5275 22.7567H63.523C63.592 23.6529 63.8764 24.3423 64.3761 24.8248C64.8931 25.2901 65.5222 25.5228 66.2633 25.5228C67.3663 25.5228 68.1332 25.0574 68.564 24.1268H73.269C73.0277 25.0747 72.5882 25.9278 71.9506 26.6861C71.3301 27.4444 70.546 28.039 69.5981 28.4698C68.6502 28.9007 67.5903 29.1161 66.4184 29.1161C65.0052 29.1161 63.747 28.8145 62.6441 28.2113C61.5411 27.6082 60.6794 26.7464 60.059 25.6261C59.4385 24.506 59.1284 23.1962 59.1284 21.6968C59.1284 20.1975 59.43 18.8877 60.0331 17.7674C60.6535 16.6472 61.5153 15.7855 62.6182 15.1823C63.7212 14.5791 64.988 14.2775 66.4184 14.2775C67.8144 14.2775 69.0552 14.5705 70.141 15.1564C71.2267 15.7424 72.0712 16.5782 72.6743 17.664C73.2948 18.7498 73.605 20.0165 73.605 21.4641ZM69.081 20.3009C69.081 19.5425 68.8226 18.9393 68.3055 18.4912C67.7884 18.0432 67.1422 17.8191 66.3667 17.8191C65.6256 17.8191 64.9965 18.0346 64.4796 18.4654C63.9798 18.8962 63.6695 19.5081 63.5489 20.3009H69.081ZM74.2826 21.671C74.2826 20.1888 74.5584 18.8877 75.1098 17.7674C75.6786 16.6472 76.4455 15.7855 77.4106 15.1823C78.3758 14.5791 79.4529 14.2775 80.642 14.2775C81.6588 14.2775 82.5464 14.4843 83.3047 14.8979C84.0802 15.3116 84.6748 15.8545 85.0884 16.5266V14.4843H89.509V28.9093H85.0884V26.8671C84.6576 27.5392 84.0544 28.0821 83.2788 28.4957C82.5205 28.9093 81.633 29.1161 80.6162 29.1161C79.4443 29.1161 78.3758 28.8145 77.4106 28.2113C76.4455 27.5909 75.6786 26.7206 75.1098 25.6003C74.5584 24.4629 74.2826 23.1531 74.2826 21.671ZM85.0884 21.6968C85.0884 20.5938 84.7782 19.7235 84.1578 19.0859C83.5546 18.4482 82.8135 18.1293 81.9346 18.1293C81.0556 18.1293 80.3059 18.4482 79.6855 19.0859C79.0824 19.7062 78.7808 20.568 78.7808 21.671C78.7808 22.7739 79.0824 23.6529 79.6855 24.3078C80.3059 24.9455 81.0556 25.2643 81.9346 25.2643C82.8135 25.2643 83.5546 24.9455 84.1578 24.3078C84.7782 23.6702 85.0884 22.7998 85.0884 21.6968ZM91.0522 21.6968C91.0522 20.1975 91.3542 18.8877 91.9572 17.7674C92.578 16.6472 93.4313 15.7855 94.5171 15.1823C95.6198 14.5791 96.8775 14.2775 98.291 14.2775C100.101 14.2775 101.609 14.7514 102.815 15.6993C104.039 16.6472 104.839 17.9828 105.219 19.7062H100.514C100.118 18.6033 99.351 18.0517 98.2135 18.0517C97.403 18.0517 96.7572 18.3706 96.2745 19.0083C95.7917 19.6287 95.5503 20.5249 95.5503 21.6968C95.5503 22.8687 95.7917 23.7735 96.2745 24.4112C96.7572 25.0316 97.403 25.3418 98.2135 25.3418C99.351 25.3418 100.118 24.7903 100.514 23.6873H105.219C104.839 25.3763 104.039 26.7033 102.815 27.6685C101.591 28.6335 100.083 29.1161 98.291 29.1161C96.8775 29.1161 95.6198 28.8145 94.5171 28.2113C93.4313 27.6082 92.578 26.7464 91.9572 25.6261C91.3542 24.506 91.0522 23.1962 91.0522 21.6968ZM113.374 29.1161C111.961 29.1161 110.686 28.8145 109.549 28.2113C108.428 27.6082 107.541 26.7464 106.885 25.6261C106.248 24.506 105.929 23.1962 105.929 21.6968C105.929 20.2147 106.257 18.9135 106.911 17.7933C107.567 16.6558 108.463 15.7855 109.6 15.1823C110.738 14.5791 112.013 14.2775 113.426 14.2775C114.839 14.2775 116.115 14.5791 117.252 15.1823C118.39 15.7855 119.286 16.6558 119.941 17.7933C120.595 18.9135 120.923 20.2147 120.923 21.6968C120.923 23.1789 120.587 24.4887 119.915 25.6261C119.26 26.7464 118.355 27.6082 117.201 28.2113C116.063 28.8145 114.788 29.1161 113.374 29.1161ZM113.374 25.2901C114.219 25.2901 114.934 24.9799 115.52 24.3595C116.123 23.739 116.425 22.8515 116.425 21.6968C116.425 20.5421 116.132 19.6546 115.546 19.0341C114.978 18.4137 114.27 18.1035 113.426 18.1035C112.565 18.1035 111.849 18.4137 111.28 19.0341C110.712 19.6373 110.427 20.5249 110.427 21.6968C110.427 22.8515 110.703 23.739 111.254 24.3595C111.824 24.9799 112.53 25.2901 113.374 25.2901ZM131.282 14.3292C132.971 14.3292 134.315 14.8806 135.315 15.9837C136.331 17.0694 136.84 18.5688 136.84 20.4818V28.9093H132.445V21.0764C132.445 20.1112 132.196 19.3615 131.695 18.8273C131.196 18.293 130.524 18.0259 129.68 18.0259C128.835 18.0259 128.163 18.293 127.663 18.8273C127.163 19.3615 126.913 20.1112 126.913 21.0764V28.9093H122.492V14.4843H126.913V16.3973C127.361 15.7596 127.964 15.2598 128.723 14.8979C129.481 14.5188 130.334 14.3292 131.282 14.3292ZM145.004 29.1161C143.747 29.1161 142.626 28.9007 141.644 28.4698C140.661 28.039 139.886 27.453 139.317 26.7119C138.749 25.9537 138.43 25.1092 138.36 24.1785H142.729C142.781 24.6783 143.014 25.0833 143.428 25.3935C143.841 25.7037 144.35 25.8589 144.953 25.8589C145.505 25.8589 145.927 25.7555 146.219 25.5487C146.53 25.3246 146.685 25.0402 146.685 24.6955C146.685 24.2819 146.469 23.9803 146.038 23.7908C145.608 23.5839 144.91 23.3599 143.944 23.1186C142.911 22.8773 142.049 22.6274 141.359 22.3689C140.67 22.0932 140.076 21.671 139.576 21.1022C139.076 20.5162 138.826 19.7321 138.826 18.7498C138.826 17.9225 139.05 17.1728 139.498 16.5007C139.964 15.8113 140.635 15.2685 141.514 14.8721C142.41 14.4756 143.47 14.2775 144.694 14.2775C146.504 14.2775 147.926 14.7256 148.96 15.6217C150.011 16.5179 150.614 17.7071 150.77 19.1893H146.685C146.616 18.6894 146.392 18.293 146.012 18.0001C145.651 17.7071 145.168 17.5606 144.565 17.5606C144.048 17.5606 143.652 17.664 143.376 17.8708C143.1 18.0604 142.963 18.3275 142.963 18.6722C142.963 19.0859 143.177 19.396 143.608 19.6028C144.056 19.8096 144.746 20.0165 145.677 20.2233C146.746 20.4991 147.616 20.7747 148.287 21.0505C148.96 21.3091 149.546 21.7399 150.046 22.3431C150.562 22.9291 150.829 23.7218 150.847 24.7214C150.847 25.5658 150.606 26.3242 150.123 26.9963C149.658 27.6512 148.977 28.1682 148.081 28.5474C147.202 28.9265 146.176 29.1161 145.004 29.1161Z" fill="#7C7B7B"/>
</g>
</g>
</g>
</g>
<defs>
<clipPath id="clip0_7816_1243">
<rect width="151" height="40" fill="white"/>
</clipPath>
</defs>
</svg>
