<svg width="191" height="37" viewBox="0 0 191 37" fill="none" xmlns="http://www.w3.org/2000/svg">
<g id="SVG">
<g id="Clip path group">
<mask id="mask0_7816_1204" style="mask-type:luminance" maskUnits="userSpaceOnUse" x="0" y="0" width="191" height="40">
<g id="clip0_272_163129">
<path id="Vector" d="M190.188 0H0.1875V40H190.188V0Z" fill="white"/>
</g>
</mask>
<g mask="url(#mask0_7816_1204)">
<g id="Group">
<g id="Clip path group_2">
<mask id="mask1_7816_1204" style="mask-type:luminance" maskUnits="userSpaceOnUse" x="0" y="10" width="191" height="20">
<g id="clip1_272_163129">
<path id="Vector_2" d="M190.188 10.8047H0.1875V29.1918H190.188V10.8047Z" fill="white"/>
</g>
</mask>
<g mask="url(#mask1_7816_1204)">
<g id="Group_2">
<path id="Vector_3" d="M13.1938 10.8047V17.7776H5.37858V10.8047H0.1875V29.1918H5.37858V22.1616H13.1983V29.1918H18.3893V10.8047H13.1938Z" fill="#7C7B7B"/>
<path id="Vector_4" d="M30.2185 16.3486L26.3507 10.8047H19.9688L27.462 21.1075V29.1918H32.6796V21.081L40.1685 10.8047H34.0821L30.2185 16.3486Z" fill="#7C7B7B"/>
<path id="Vector_5" d="M52.0792 10.8047H41.75V29.1918H46.9411V23.4053H52.0792C56.8072 23.4053 59.2991 21.2133 59.2991 17.1072C59.2991 13.0011 56.8116 10.8047 52.0792 10.8047ZM53.9933 17.1116C53.9933 18.4656 53.2083 19.0831 51.4529 19.0831H46.9322V15.1313H51.4529C53.2127 15.1313 53.9933 15.7223 53.9933 17.1028V17.1116Z" fill="#7C7B7B"/>
<path id="Vector_6" d="M61.3203 29.1918H78.2788V24.9225H66.5115V21.9454H76.5187V17.9937H66.5115V15.074H78.2788V10.8047H61.3203V29.1918Z" fill="#7C7B7B"/>
<path id="Vector_7" d="M98.4365 16.8338C98.4365 12.8908 96.0852 10.8047 91.5651 10.8047H80.6094V29.1918H85.8007V22.8364H89.1257L93.2896 29.1918L93.3027 29.183H99.3313L94.8112 22.3733C97.1885 21.5618 98.4319 19.6962 98.4319 16.8294L98.4365 16.8338ZM90.8549 18.62H85.8007V15.0475H90.8549C92.4208 15.0475 93.1525 15.6165 93.1525 16.8338C93.1525 18.051 92.4208 18.62 90.8549 18.62Z" fill="#7C7B7B"/>
<path id="Vector_8" d="M106.301 10.8047H101.109V29.1918H117.115V24.7858H106.301V10.8047Z" fill="#7C7B7B"/>
<path id="Vector_9" d="M124.636 10.8047H119.445V29.1918H124.636V10.8047Z" fill="#7C7B7B"/>
<path id="Vector_10" d="M141.088 21.081L133.678 10.8047H127.781V29.1918H132.73V17.3233L141.299 29.1918H146.036V10.8047H141.088V21.081Z" fill="#7C7B7B"/>
<path id="Vector_11" d="M149.188 29.1918H166.142V24.9225H154.38V21.9454H164.387V17.9937H154.38V15.074H166.142V10.8047H149.188V29.1918Z" fill="#7C7B7B"/>
<path id="Vector_12" d="M189.715 10.8047H171.328V29.1918H189.715V10.8047Z" fill="#7C7B7B"/>
</g>
</g>
</g>
</g>
</g>
</g>
</g>
</svg>
