<svg width="65" height="65" viewBox="0 0 65 65" fill="none" xmlns="http://www.w3.org/2000/svg">
<g id="017-axe">
<path id="Vector" d="M47.4148 2.75222L45.8302 0.375527L44.2457 2.75222C42.2147 5.79858 38.8165 7.61719 35.1551 7.61719H32.4997V0H17.2648V7.61719H13.4561V26.6602H17.2648V65H28.691V36.9704L32.4997 33.1618V26.6602H35.1551C38.8165 26.6602 42.2147 28.4788 44.2457 31.5251L45.8302 33.9018L47.4148 31.5251C47.5834 31.2722 51.5433 25.2393 51.5433 17.1387C51.5433 9.03805 47.5834 3.00511 47.4148 2.75222ZM21.0735 3.80859H28.691V7.61719H21.0735V3.80859ZM17.2648 11.4258H28.691V22.8516H17.2648V11.4258ZM28.691 31.5843L24.8822 35.3929V61.1914H21.0735V26.6602H28.691V31.5843ZM45.4821 27.0733C42.7561 24.3909 39.0669 22.8516 35.1551 22.8516H32.4997V11.4258H35.1551C39.0669 11.4258 42.756 9.8866 45.482 7.20421C46.4858 9.40875 47.7346 12.9858 47.7346 17.1387C47.7346 21.2919 46.4856 24.8696 45.4821 27.0733Z" fill="white"/>
</g>
</svg>
