<svg width="65" height="65" viewBox="0 0 65 65" fill="none" xmlns="http://www.w3.org/2000/svg">
<g id="009-hook" clip-path="url(#clip0_7833_90)">
<g id="Group">
<path id="Vector" d="M38.2131 45.9648V38.3477H40.9063L53.9942 25.2602L44.9453 11.6875H42.0218V0.0078125H38.2131V11.6875H26.7869V0.0078125H22.9782V11.6875H20.0548L11.0059 25.2602L24.0938 38.3477H26.7869V45.9648H30.5957V53.582H32.5C34.6002 53.582 36.3087 55.2906 36.3087 57.3906C36.3087 59.4907 34.6002 61.1992 32.5 61.1992C30.3999 61.1992 28.6913 59.4907 28.6913 57.3906H24.8826C24.8826 61.5907 28.2998 65.0078 32.5 65.0078C36.7003 65.0078 40.1175 61.5907 40.1175 57.3906C40.1175 53.8477 37.6862 50.8621 34.4044 50.0144V45.9648H38.2131ZM15.9069 24.775L22.0929 15.4961H42.907L49.0931 24.775L39.3287 34.5391H25.6714L15.9069 24.775ZM34.4044 38.3477V42.1562H30.5957V38.3477H34.4044Z" fill="white"/>
<path id="Vector_2" d="M22.1855 25.0195L24.8783 22.3269L27.5711 25.0195L24.8783 27.7122L22.1855 25.0195Z" fill="white"/>
<path id="Vector_3" d="M37.418 25.0195L40.1107 22.3269L42.8035 25.0195L40.1107 27.7122L37.418 25.0195Z" fill="white"/>
</g>
</g>
<defs>
<clipPath id="clip0_7833_90">
<rect width="65.0023" height="65" fill="white"/>
</clipPath>
</defs>
</svg>
