<svg width="65" height="65" viewBox="0 0 65 65" fill="none" xmlns="http://www.w3.org/2000/svg">
<g id="032-helmet" clip-path="url(#clip0_7833_127)">
<g id="Group">
<path id="Vector" d="M57.2528 26.6562C57.2528 16.6369 51.1844 7.6181 42.0179 3.79897V-0.00390625H22.9743V3.79897C13.8078 7.6181 7.73939 16.6369 7.73939 26.6562H3.93066V38.3359H61.0615V26.6562H57.2528ZM53.4441 26.6562H42.0179V7.99249C48.9492 11.5323 53.4441 18.7236 53.4441 26.6562ZM30.5917 3.80469V13.3262H34.4005V3.80469H38.2092V26.6562H26.783V3.80469H30.5917ZM22.9743 7.99249V26.6562H11.5481C11.5481 18.7236 16.043 11.5323 22.9743 7.99249ZM57.2528 34.5273H7.73939V30.4648H57.2528V34.5273Z" fill="white"/>
<path id="Vector_2" d="M51.5406 42.1406H13.4533C10.3031 42.1406 7.74023 44.7034 7.74023 47.8535V59.2793C7.74023 62.4294 10.3031 64.9922 13.4533 64.9922H24.8795C28.0297 64.9922 30.5926 62.4294 30.5926 59.2793C30.5926 58.2293 31.4469 57.375 32.497 57.375C33.547 57.375 34.4013 58.2293 34.4013 59.2793C34.4013 62.4294 36.9642 64.9922 40.1144 64.9922H51.5406C54.6908 64.9922 57.2537 62.4294 57.2537 59.2793V47.8535C57.2537 44.7034 54.6908 42.1406 51.5406 42.1406ZM53.4449 59.2793C53.4449 60.3293 52.5906 61.1836 51.5406 61.1836H40.1144C39.0643 61.1836 38.21 60.3293 38.21 59.2793C38.21 56.1292 35.6471 53.5664 32.497 53.5664C29.3468 53.5664 26.7839 56.1292 26.7839 59.2793C26.7839 60.3293 25.9296 61.1836 24.8795 61.1836H13.4533C12.4033 61.1836 11.549 60.3293 11.549 59.2793V47.8535C11.549 46.8035 12.4033 45.9492 13.4533 45.9492H51.5406C52.5906 45.9492 53.4449 46.8035 53.4449 47.8535V59.2793Z" fill="white"/>
</g>
</g>
<defs>
<clipPath id="clip0_7833_127">
<rect width="65.0023" height="65" fill="white"/>
</clipPath>
</defs>
</svg>
