<svg width="80" height="80" viewBox="0 0 80 80" fill="none" xmlns="http://www.w3.org/2000/svg">
<circle cx="40" cy="40" r="39" fill="white" stroke="#C11425" stroke-width="2"/>
<g clip-path="url(#clip0_7835_256)">
<path d="M26.209 62.3143C22.9842 62.3108 19.8926 61.0282 17.6123 58.748C15.3321 56.4677 14.0495 53.376 14.0459 50.1513V50.0903C14.0459 50.0502 14.0407 49.9901 14.0363 49.9106C13.7866 45.4934 14.5087 33.5673 26.5752 18.2856C26.6839 18.1484 26.8376 18.0539 27.0091 18.0189C27.1806 17.9839 27.359 18.0106 27.5128 18.0943C27.6665 18.1779 27.7858 18.3132 27.8495 18.4763C27.9133 18.6393 27.9174 18.8196 27.8612 18.9854C27.827 19.0865 24.5294 28.9645 26.7825 38.003C29.956 38.1519 32.9453 39.5367 35.1111 41.861C37.2769 44.1854 38.4473 47.2649 38.372 50.4411C38.2967 53.6172 36.9817 56.6378 34.7082 58.8569C32.4346 61.076 29.3831 62.3175 26.206 62.3158L26.209 62.3143ZM15.5317 50.1936C15.5399 52.3036 16.1731 54.3638 17.3513 56.1142C18.5295 57.8646 20.2 59.2267 22.1517 60.0285C24.1034 60.8302 26.249 61.0358 28.3174 60.6191C30.3859 60.2024 32.2845 59.1822 33.7736 57.6873C35.2627 56.1924 36.2755 54.2898 36.6841 52.2198C37.0928 50.1497 36.8789 48.005 36.0695 46.0564C35.2602 44.1078 33.8916 42.4427 32.1367 41.2713C30.3817 40.0999 28.319 39.4747 26.209 39.4747C26.0463 39.4746 25.8881 39.4212 25.7588 39.3225C25.6294 39.2239 25.536 39.0855 25.4929 38.9286C23.7843 32.7108 24.6222 26.1883 25.4713 22.2303C15.9001 35.6377 15.2991 45.8716 15.5227 49.8274C15.5328 49.9492 15.5358 50.0714 15.5317 50.1936ZM53.8335 62.3143C50.6088 62.3108 47.5171 61.0282 45.2369 58.748C42.9566 56.4677 41.674 53.376 41.6705 50.1513V50.0903C41.6705 50.0502 41.6653 49.9901 41.6608 49.9106C41.4112 45.4934 42.1333 33.5673 54.1998 18.2856C54.3085 18.1484 54.4621 18.0539 54.6336 18.0189C54.8052 17.9839 54.9835 18.0106 55.1373 18.0943C55.2911 18.1779 55.4103 18.3132 55.4741 18.4763C55.5378 18.6393 55.5419 18.8196 55.4857 18.9854C55.4515 19.0865 52.1539 28.9645 54.4071 38.003C57.5806 38.1519 60.5699 39.5367 62.7357 41.861C64.9015 44.1854 66.0719 47.2649 65.9966 50.4411C65.9213 53.6172 64.6062 56.6378 62.3327 58.8569C60.0592 61.076 57.0076 62.3175 53.8306 62.3158L53.8335 62.3143ZM43.1562 50.1936C43.1644 52.3036 43.7976 54.3638 44.9759 56.1142C46.1541 57.8646 47.8245 59.2267 49.7763 60.0285C51.728 60.8302 53.8735 61.0358 55.942 60.6191C58.0104 60.2024 59.9091 59.1822 61.3982 57.6873C62.8872 56.1924 63.9 54.2898 64.3087 52.2198C64.7173 50.1497 64.5034 48.005 63.6941 46.0564C62.8847 44.1078 61.5162 42.4427 59.7612 41.2713C58.0063 40.0999 55.9436 39.4747 53.8335 39.4747C53.6709 39.4746 53.5127 39.4212 53.3833 39.3225C53.2539 39.2239 53.1605 39.0855 53.1174 38.9286C51.4088 32.7108 52.2468 26.1883 53.0959 22.2303C43.5247 35.6377 42.9229 45.8716 43.1466 49.8274C43.1569 49.9492 43.1601 50.0714 43.1562 50.1936Z" fill="#C11425"/>
</g>
<defs>
<clipPath id="clip0_7835_256">
<rect width="52" height="44.3119" fill="white" transform="translate(14 18)"/>
</clipPath>
</defs>
</svg>
